<svg width="20" height="20" viewBox="0 0 20 20" fill="none" xmlns="http://www.w3.org/2000/svg">
<path d="M7.85213 11.531C7.58362 11.7545 7.25314 11.8662 6.8607 11.8662C6.46826 11.8662 6.13778 11.7545 5.86927 11.531C5.60075 11.3009 5.4665 10.9822 5.4665 10.5746C5.4665 10.1737 5.60075 9.8615 5.86927 9.63803C6.13778 9.40798 6.46826 9.29296 6.8607 9.29296C7.25314 9.29296 7.58362 9.40798 7.85213 9.63803C8.12065 9.8615 8.2549 10.1737 8.2549 10.5746C8.2549 10.9822 8.12065 11.3009 7.85213 11.531Z" fill="#051439"/>
<path fill-rule="evenodd" clip-rule="evenodd" d="M6 0C2.68629 0 0 2.68629 0 6V14C0 17.3137 2.68629 20 6 20H14C17.3137 20 20 17.3137 20 14V6C20 2.68629 17.3137 0 14 0H6ZM5.35289 12.6845C5.78665 12.8948 6.29269 13 6.87103 13C7.44248 13 7.94164 12.8915 8.36851 12.6746C8.80226 12.4512 9.13274 12.1554 9.35994 11.7873C9.59403 11.4127 9.71107 11.0052 9.71107 10.5648C9.71107 10.131 9.59403 9.73662 9.35994 9.38169C9.13274 9.02676 8.82291 8.74742 8.43047 8.54366C8.04491 8.33333 7.62149 8.2216 7.1602 8.20845C7.00184 8.20845 6.85382 8.22488 6.71612 8.25775L8.16196 6.34507C8.19638 6.29249 8.2136 6.24977 8.2136 6.2169C8.2136 6.15775 8.19294 6.10845 8.15163 6.06901C8.11032 6.02301 8.05868 6 7.99672 6H7.03627C6.94676 6 6.87447 6.01972 6.81939 6.05916C6.7712 6.09202 6.72644 6.13803 6.68513 6.19718L4.79521 8.67183C4.26507 9.36197 4 9.99953 4 10.5845C4 11.0446 4.11704 11.4587 4.35113 11.8268C4.58522 12.1883 4.91914 12.4742 5.35289 12.6845ZM12.7469 12.507C12.7951 12.5531 12.8536 12.5761 12.9224 12.5761H13.5214C13.5971 12.5761 13.6557 12.5531 13.697 12.507C13.7452 12.461 13.7693 12.4052 13.7693 12.3394V10.4169H15.7521C15.821 10.4169 15.8795 10.3939 15.9277 10.3479C15.9759 10.3019 16 10.2427 16 10.1704V9.65775C16 9.58545 15.9759 9.52958 15.9277 9.49014C15.8864 9.44413 15.8279 9.42113 15.7521 9.42113H13.7693V7.54789C13.7693 7.47559 13.7452 7.41972 13.697 7.38028C13.6557 7.33427 13.5971 7.31127 13.5214 7.31127H12.9224C12.8536 7.31127 12.7951 7.33427 12.7469 7.38028C12.6987 7.41972 12.6746 7.47559 12.6746 7.54789V9.42113H10.6917C10.6228 9.42113 10.5643 9.44413 10.5161 9.49014C10.4679 9.52958 10.4438 9.58545 10.4438 9.65775V10.1704C10.4438 10.2427 10.4679 10.3019 10.5161 10.3479C10.5643 10.3939 10.6228 10.4169 10.6917 10.4169H12.6746V12.3394C12.6746 12.4052 12.6987 12.461 12.7469 12.507Z" fill="#051439"/>
</svg>
