<svg width="34" height="30" viewBox="0 0 34 30" fill="none" xmlns="http://www.w3.org/2000/svg">
<path fill-rule="evenodd" clip-rule="evenodd" d="M20.1864 14.0057C20.6988 13.4892 21.0601 12.8781 21.2704 12.2281C21.349 11.9852 21.4065 11.7368 21.4429 11.4858C21.6395 10.1309 21.2206 8.70269 20.1864 7.65998L13.8921 1.31424C12.154 -0.438082 9.33595 -0.438082 7.59784 1.31424L1.30358 7.65998C-0.434528 9.4123 -0.434528 12.2534 1.30358 14.0057L7.59784 20.3514C9.33595 22.1038 12.154 22.1038 13.8921 20.3514L20.1864 14.0057ZM3.40167 11.3617C3.98104 11.9458 4.92038 11.9458 5.49975 11.3617C6.07913 10.7775 6.07913 9.83052 5.49975 9.24641C4.92038 8.6623 3.98104 8.6623 3.40167 9.24641C2.8223 9.83052 2.8223 10.7775 3.40167 11.3617ZM9.1714 5.54473C9.75078 6.12884 10.6901 6.12884 11.2695 5.54473C11.8489 4.96063 11.8489 4.0136 11.2695 3.42949C10.6901 2.84538 9.75078 2.84538 9.1714 3.42949C8.59203 4.0136 8.59203 4.96063 9.1714 5.54473ZM10.2204 18.2362C10.7998 18.8203 11.7392 18.8203 12.3185 18.2362C12.8979 17.6521 12.8979 16.7051 12.3185 16.121C11.7392 15.5368 10.7998 15.5368 10.2204 16.121C9.64108 16.7051 9.64108 17.6521 10.2204 18.2362ZM15.9902 12.4193C16.5696 13.0034 17.5089 13.0034 18.0883 12.4193C18.6676 11.8352 18.6676 10.8881 18.0883 10.304C17.5089 9.71993 16.5696 9.71993 15.9902 10.304C15.4108 10.8881 15.4108 11.8352 15.9902 12.4193Z" fill="#32BFCE"/>
<path fill-rule="evenodd" clip-rule="evenodd" d="M15.1223 19.1113L14.3472 22.0277C13.711 24.4214 15.12 26.8819 17.4943 27.5233L26.0924 29.846C28.4667 30.4874 30.9072 29.0668 31.5434 26.6731L33.8472 18.0047C34.4834 15.611 33.0744 13.1505 30.7001 12.5091L22.102 10.1864C21.8759 10.1254 21.6493 10.083 21.4236 10.0584C21.5052 10.5301 21.5116 11.0124 21.4429 11.4858C21.4065 11.7368 21.349 11.9852 21.2704 12.2281C21.0601 12.8781 20.6988 13.4892 20.1864 14.0057L15.1223 19.1113ZM27.8527 15.9979C27.6406 16.7959 28.1103 17.616 28.9017 17.8298C29.6932 18.0436 30.5067 17.5701 30.7187 16.7722C30.9308 15.9743 30.4611 15.1541 29.6697 14.9403C28.8782 14.7265 28.0647 15.2 27.8527 15.9979ZM17.4752 23.2596C17.2632 24.0575 17.7328 24.8777 18.5243 25.0915C19.3157 25.3053 20.1292 24.8317 20.3413 24.0338C20.5533 23.2359 20.0837 22.4158 19.2922 22.202C18.5008 21.9882 17.6873 22.4617 17.4752 23.2596Z" fill="#32BFCE"/>
</svg>
